<?xml version="1.0" encoding="utf-8"?>
<!-- Generator: Adobe Illustrator 24.0.3, SVG Export Plug-In . SVG Version: 6.00 Build 0)  -->
<svg version="1.1" id="Layer_1" xmlns="http://www.w3.org/2000/svg" xmlns:xlink="http://www.w3.org/1999/xlink" x="0px" y="0px"
	 viewBox="0 0 24 24" style="enable-background:new 0 0 24 24;" xml:space="preserve">
<g id="noun_gift_bag_1574063" transform="translate(-17.512 -6.398)">
	<path id="Path_727" d="M38.2,11.5h-4.8V9.7c0-2.1-2-3.3-3.8-3.3s-3.8,1.3-3.8,3.3v1.8h-4.8c-0.2,0-0.3,0.1-0.3,0.3v18.3
		c0,0.2,0.1,0.3,0.3,0.3h17.3c0.2,0,0.3-0.1,0.3-0.3c0,0,0,0,0,0V11.8C38.5,11.6,38.3,11.5,38.2,11.5z M26.2,9.7
		c0-1.7,1.7-2.8,3.3-2.8s3.3,1.1,3.3,2.8v1.8h-6.6V9.7z M37.9,29.8H21.1V12h16.8V29.8z"/>
</g>
</svg>
