<?xml version="1.0" encoding="utf-8"?>
<!-- Generator: Adobe Illustrator 24.0.3, SVG Export Plug-In . SVG Version: 6.00 Build 0)  -->
<svg version="1.1" id="Layer_1" xmlns="http://www.w3.org/2000/svg" xmlns:xlink="http://www.w3.org/1999/xlink" x="0px" y="0px"
	 viewBox="0 0 24 24" style="enable-background:new 0 0 24 24;" xml:space="preserve">
<g id="noun_delivery_3085246" transform="translate(-3.5 -6.369)">
	<g id="Group_159" transform="translate(3.5 6.369)">
		<path id="Path_725" d="M24,13l-4.9-9.9c-0.1-0.2-0.3-0.3-0.5-0.2l-5,2.4l-1,0.5l0,0L8.7,7.8C8.5,7.9,8.4,8.1,8.5,8.3l4.9,9.9
			c0.1,0.1,0.2,0.2,0.3,0.2c0.1,0,0.1,0,0.2,0l9.9-4.9C24,13.5,24.1,13.2,24,13z M14.7,5.7l1.1,2.2l-1.4,0.7l-1.1-2.2L14,6.1
			L14.7,5.7z M13.9,17.5L9.4,8.3l3.2-1.6l1.3,2.6c0.1,0.1,0.2,0.2,0.3,0.2c0.1,0,0.1,0,0.2,0l2.1-1c0.1,0,0.2-0.1,0.2-0.2
			c0-0.1,0-0.2,0-0.3l-1.3-2.6l3.2-1.6l4.5,9.2L13.9,17.5z"/>
		<path id="Path_726" d="M22,16l-7.4,3.6c-0.6-0.8-1.5-1.1-2.5-0.8L3.3,1c0-0.1-0.1-0.2-0.2-0.2c-0.1,0-0.2,0-0.3,0L0.2,2
			C0,2.1-0.1,2.4,0,2.6c0.1,0.2,0.3,0.3,0.5,0.2l2.2-1.1l8.6,17.5c-1,0.7-1.2,2.1-0.5,3.2c0.4,0.6,1.1,0.9,1.8,0.9
			c1.2,0,2.3-1,2.3-2.3c0-0.2,0-0.4-0.1-0.6l7.4-3.6c0.2-0.1,0.3-0.3,0.2-0.5C22.4,16,22.2,15.9,22,16C22,16,22,16,22,16z
			 M13.3,22.3c-0.7,0.4-1.6,0.1-2-0.7c-0.4-0.7-0.1-1.6,0.7-2c0.2-0.1,0.4-0.2,0.7-0.2c0.2,0,0.3,0,0.5,0.1c0.8,0.3,1.2,1.1,0.9,1.9
			C14,21.9,13.7,22.2,13.3,22.3z"/>
	</g>
</g>
</svg>
